<svg width="83" height="79" viewBox="0 0 83 79" fill="none" xmlns="http://www.w3.org/2000/svg">
<rect width="83" height="79" rx="10" fill="#000028"/>
<path d="M17.1667 46.0833C17.1667 40.3229 18.4341 35.1934 20.9688 30.6948C23.5036 26.1962 26.2917 22.4108 29.3334 19.3385C32.3751 16.2663 35.1633 13.9205 37.698 12.301L41.5001 9.875V20.7375C41.5001 22.7674 42.1338 24.3715 43.4011 25.5499C44.6685 26.7283 46.0879 27.3186 47.6595 27.3208C48.5213 27.3208 49.3456 27.1288 50.1323 26.7448C50.9191 26.3608 51.641 25.7299 52.298 24.8521L53.6667 23.0417C57.3167 25.3458 60.257 28.5409 62.4876 32.627C64.7181 36.7131 65.8334 41.1985 65.8334 46.0833C65.8334 50.9111 64.7435 55.3143 62.5636 59.2928C60.3838 63.2713 57.5195 66.4105 53.9709 68.7103C54.8327 67.3936 55.5049 65.9529 55.9875 64.3883C56.4702 62.8237 56.7104 61.1657 56.7084 59.4146C56.7084 57.2201 56.3282 55.1486 55.5678 53.1999C54.8074 51.2513 53.7174 49.51 52.298 47.976L41.5001 36.5375L30.7782 47.976C29.3081 49.567 28.1928 51.3226 27.4324 53.2427C26.672 55.1628 26.2917 57.2201 26.2917 59.4146C26.2917 61.1701 26.5331 62.8302 27.0157 64.3949C27.4983 65.9595 28.1695 67.3991 29.0292 68.7135C25.4806 66.4094 22.6164 63.268 20.4365 59.2895C18.2567 55.311 17.1667 50.9089 17.1667 46.0833ZM41.5001 45.7542L47.9636 52.5844C48.8254 53.517 49.4845 54.5594 49.9407 55.7115C50.397 56.8635 50.6251 58.0979 50.6251 59.4146C50.6251 62.1028 49.7379 64.3927 47.9636 66.2843C46.1893 68.1759 44.0348 69.1228 41.5001 69.125C38.9654 69.125 36.8108 68.1781 35.0365 66.2843C33.2622 64.3905 32.3751 62.1006 32.3751 59.4146C32.3751 58.1528 32.6032 56.9316 33.0595 55.751C33.5157 54.5703 34.1747 53.5148 35.0365 52.5844L41.5001 45.7542Z" fill="white"/>
</svg>
